<svg xmlns="http://www.w3.org/2000/svg" viewBox="0 0 349.33 137.25"><defs><style>.cls-1{fill:#231f20;}.cls-2{fill:#fff;}.cls-2,.cls-3{stroke:#231f20;stroke-miterlimit:10;stroke-width:4px;}.cls-3{fill:#3fb549;}</style></defs><g id="Layer_2" data-name="Layer 2"><g id="Layer_2-2" data-name="Layer 2"><rect class="cls-1" width="349.33" height="137.25" rx="44.34"/><path class="cls-2" d="M86.9,27.92c9.8-.07,9.8,13.16,0,13.09H43.59c-9.79.07-9.79-13.16,0-13.09Z"/><path class="cls-2" d="M43.68,73.24c-9.59,0-9.59-13.08,0-13.1H86.81c9.59,0,9.59,13.08,0,13.1Z"/><path class="cls-2" d="M43.68,105.46c-9.59,0-9.59-13.07,0-13.09H86.81c9.59,0,9.59,13.08,0,13.09Z"/><path class="cls-3" d="M178.58,107.94c.08,8.62-13.4,8.62-13.56-.08-.07-13.27-.23-26.62-.31-40a2.17,2.17,0,0,1,0-.26,4.26,4.26,0,0,1,0-.63c-.44-22-27.57-33.88-43.51-17.94s-4.1,43.08,17.93,43.52c8.75.11,8.75,13.62,0,13.51a40.06,40.06,0,0,1-33.66-19.38c-12.73-21.7-.88-50.6,23.37-57.36,24.69-6.75,48.83,12.52,49.38,37.65a4.87,4.87,0,0,1,0,.54,2.06,2.06,0,0,1,0,.35C178.34,81.16,178.5,94.51,178.58,107.94Z"/><path class="cls-2" d="M296.16,104.57c-24.73,7.24-49.36-12.26-49.8-37.55-.11-8,12.36-8,12.48,0a27.3,27.3,0,0,0,16.48,24.62A26.62,26.62,0,1,0,285.46,40.4c-8-.23-8-12.7,0-12.48a39.58,39.58,0,0,1,33.65,19.27C332,68.81,320.33,97.66,296.16,104.57Z"/><path class="cls-2" d="M237.65,41.47H220.81v58c0,8.78-13,8.67-13,0v-58H191c-8.42,0-8.42-13.55,0-13.55h46.67C246.07,27.92,246,41.47,237.65,41.47Z"/></g></g></svg>